<?xml version="1.0" encoding="utf-8"?>
<svg xmlns="http://www.w3.org/2000/svg" version="1.1" viewBox="0 0 270 150">
  <defs>
    <style>
      .cls-1 {
        fill: #FFFFFF;
      }

      .cls-2 {
        fill: #FFFFFF;
      }
    </style>
  </defs>
  
  <g>
    <g id="Layer_1">
      <g>
        <path class="cls-2" d="M10.6,85.5c0-5.4,2.1-10,5.2-14.2,1.9-2.6,4.4-4.6,7.4-5.8,3-1.2,5.4-.7,6.3,1.6.8,2,.5,4.2-.7,6.1-2.2,3.7-5.9,5.1-9.8,6.3,0,0-.2,0-.3,0-3,.7-3.1.8-3.5,3.9-.1,1.1-.2,2.2,0,3.2.5,3.4,3.5,3.7,5.8,2,1.6-1.1,2.7-2.9,4-4.3.3-.4,1-1,1.2-.8.5.3.6,1.3.4,1.7-1.9,3.8-4.1,7.4-8.6,8.3-4.2.9-7-1.1-7.5-5.9,0-.7,0-1.4,0-2.1ZM16.7,78.2c5.1-1.3,8.5-4.1,10.2-8.7.3-.7.4-1.8,0-2.5-.4-.5-1.9-.2-2.7.4s-.2.2-.3.3c-3.4,2.7-5.7,6.2-7.1,10.6Z"/>
        <path class="cls-2" d="M233.2,75.3c-.4-3.1-1.9-5.7-3.5-8.2-2.1-3.4-3.2-7.1-2.3-11.2,1.1-4.8,5.2-7.7,9.8-8.2,3.4-.4,6.7.3,9.5,2.5,2.4,1.9,3.7,4.3,4,7.4.4,4-1.3,7.4-3.2,10.7-1.2,2.2-2.2,4.5-3.4,7h-2.2c-.4-1.9.4-3.7,1.1-5.3.9-1.9,2.1-3.6,3.1-5.4,1.8-3.5,2.6-7.1,0-10.6-2.1-2.9-5.2-3.8-8.5-3.3-4.3.7-6.5,2.3-7.5,6.5-.6,2.6.2,5.1,1.5,7.5,1.5,2.7,3.5,5.3,4,8.5.1.7.2,1.3.3,2.1h-2.9Z"/>
        <path class="cls-2" d="M117.3,71.4h2.7c.1.4.2.9.4,1.6,1.5-1.5,3.2-1.7,5-1.7,2.1,0,3.6.9,4.3,2.7,1.4,3.5,1.7,7-.8,10.2-.8,1-2.1,1.8-3.3,2-1.6.3-3.4-.1-5.2-.2v5h-3.1v-19.6ZM120.4,79c0,.7,0,1.4,0,2.1,0,1.4.6,2.2,1.8,2.7,1.2.5,2.2.4,3.2-.5,2.1-1.8,1.8-4.3,1.5-6.6-.3-2-1.9-3.2-3.4-3-1.8.3-3.1,1.9-3.1,3.9,0,.5,0,.9,0,1.4Z"/>
        <path class="cls-2" d="M180,79c0,1.9.6,3.3,2,4.3,1.7,1.1,3.2.6,4.8-.3.9-.5,1.7-1,2.6.2.6.8.3,1.3-.3,1.6-.9.5-1.9,1.1-2.9,1.2-1.8.1-3.8.3-5.5-.3-3.8-1.1-4.6-5.6-4.2-8.5.4-2.8,1.7-5.3,4.6-5.8,4.2-.7,6.5-.6,8.3,3.3.4.9.5,2,.6,3,0,.7-.3,1.2-1.3,1.2-2.9,0-5.7,0-8.8,0ZM186.8,76.9c-.5-2.2-1.4-3.2-3.1-3.2-1.9,0-3,.9-3.6,3.2h6.7Z"/>
        <path class="cls-2" d="M148.1,79c0,2,.6,3.4,2.1,4.4,1.6,1.1,3.2.6,4.7-.2,1.5-.9,2.1-.8,2.8.4.2.3,0,1.1-.2,1.2-1,.6-2,1.3-3.1,1.4-1.8.2-3.8.2-5.5-.3-3.7-1.1-4.5-5.7-4.1-8.5.4-2.8,1.7-5.3,4.6-5.8,4.1-.7,6.4-.7,8.3,3.4.4.8.5,1.9.5,2.8,0,.7-.3,1.3-1.4,1.3-2.9,0-5.7,0-8.7,0ZM148.2,77c2,0,3.9,0,5.9,0,.3,0,.5,0,.8-.1-.4-2.2-1.4-3.1-3.1-3.2-1.9,0-2.9.9-3.6,3.3Z"/>
        <path class="cls-2" d="M161.3,71.6c1.1.4,2.5-.8,3,1.2,1.5-1.3,3.2-1.5,5.1-1.4,2.3.1,4.1,1.4,4.2,3.8.2,3.7,0,7.4,0,11.2h-3.2c0-.7,0-1.3,0-2,0-2.5,0-5,0-7.5,0-1.9-1.1-3.1-2.7-3.1-1.7,0-3.4,1.7-3.4,3.2,0,3.1,0,6.2,0,9.4h-3.1v-14.7Z"/>
        <path class="cls-2" d="M192.8,71.7h3.2c0,2.9,0,5.7,0,8.6,0,.7.1,1.5.4,2.2.5,1.4,1.8,1.9,3.3,1.3,2.2-.9,2.5-1.3,2.5-3.6,0-2.8,0-5.6,0-8.5h3.1v14.6c-1.1-.1-2.5.8-2.9-.6-1.8.2-3.5.6-5.2.7-2.3.1-4.2-1.5-4.3-3.8-.1-3.5,0-7.1,0-10.8Z"/>
        <path class="cls-2" d="M133.7,71.7h2.7c0,.4.2.8.2,1.2.2,0,.3,0,.4-.2,1.4-1.6,3.2-1.5,5-1.4,1.1,0,1.1.9.9,1.7-.2.7-.2,1.6-1.4,1.5-3.1-.4-4.8,1.2-4.8,4.2,0,2.5,0,4.9,0,7.5h-3.1v-14.6Z"/>
        <path class="cls-2" d="M209.8,71.7h2.7c0,.4.2.8.3,1.3.2-.1.5-.2.6-.4,1.4-1.6,3.2-1.3,5-1.2,1,0,.9,1,.8,1.6-.2.7-.2,1.6-1.4,1.5-3.1-.4-4.8,1.2-4.8,4.4,0,2.4,0,4.8,0,7.4h-3.1v-14.6Z"/>
        <path class="cls-2" d="M239,76.7c1.3,0,2.5-.1,3.8,0,.5,0,1,.7,1.4,1-.5.4-.9,1.2-1.4,1.2-2.6.1-5.2.1-7.7,0-.5,0-.9-.8-1.3-1.3.4-.3.9-.9,1.3-1,1.3-.1,2.6,0,3.9,0Z"/>
        <path class="cls-2" d="M238.8,82.4c-1.1,0-2.3,0-3.4,0-.8,0-1.5-.2-1.4-1.1,0-.5.8-1.2,1.2-1.2,2.5-.1,5-.1,7.5,0,.4,0,1.1.7,1.2,1.2.1.9-.6,1.1-1.4,1.1-1.2,0-2.4,0-3.7,0Z"/>
        <path class="cls-2" d="M259.4,57.1v3h-5.6v-3h5.6Z"/>
        <path class="cls-2" d="M218.5,60.1v-3h5.6v3h-5.6Z"/>
        <path class="cls-2" d="M226.5,67.4c-1.8.8-3.5,1.6-5.3,2.3-.4-.9-.8-1.7-1.3-2.7,1.7-.8,3.4-1.5,5.2-2.3.5.9.9,1.7,1.4,2.6Z"/>
        <path class="cls-2" d="M256.8,69.8c-1.8-.8-3.5-1.5-5.2-2.2.4-.9.8-1.8,1.2-2.7,1.4.6,2.7,1.2,4,1.6,1.1.3,1.2.8.7,1.7-.3.5-.4,1-.7,1.6Z"/>
        <path class="cls-2" d="M251.1,50.3c1.3-1,2.4-1.7,3.5-2.6.8-.6,1.3-.7,1.8.3.2.4.7.8,1.1,1.2-1.5,1.1-2.9,2.1-4.3,3.2-.1,0-.6,0-.7-.2-.5-.6-.9-1.3-1.4-2Z"/>
        <path class="cls-2" d="M220.4,49.3c.3-.3.6-.6.8-.8q1.3-1.5,2.9-.2c.9.7,1.7,1.3,2.7,2.1-.5.7-.9,1.4-1.4,1.9-.1.2-.7.1-.9,0-1.4-.9-2.7-1.9-4.1-3Z"/>
        <path class="cls-2" d="M247.7,47.2c-.9-.5-1.8-1-2.7-1.4.9-1.6,1.7-3,2.6-4.7.9.4,1.7.8,2.7,1.3-.8,1.6-1.6,3.1-2.6,4.8Z"/>
        <path class="cls-2" d="M232.9,45.7c-.8.5-1.7.9-2.6,1.5-.9-1.7-1.7-3.2-2.6-4.8.9-.5,1.7-.9,2.6-1.3.9,1.6,1.7,3.1,2.6,4.7Z"/>
        <path class="cls-2" d="M240.5,44.9c-.5,0-.9,0-1.3,0-.5,0-.9,0-1.4,0v-5.1h2.7v5Z"/>
        <path class="cls-2" d="M235.2,83.5h7.8c-1.3,1-1.9,2.2-3.4,2.3-2.3,0-3.3-.4-4.4-2.3Z"/>
        <path class="cls-1" d="M111.3,61.6c-11.2-25.7-43-35.2-66.6-20-7.1,4.6-12.5,10.7-16.2,18.2,12.4,9.8,12.4,27.8,0,37.6.2.5.4.9.6,1.3,8.7,15.5,22.2,23.4,39.8,24.1,7.4.3,14.6-1.6,21.3-5,20.9-10.4,30.2-35.3,21.1-56.3ZM48,86.9c-1,.7-2.3,1-3.5,1.2-1.4.2-2.2-.8-2.1-2.2,0-.8.3-1.6.5-2.3.9-3.1,1.8-6.1,2.7-9.2.2-.6.2-1.1.3-1.7-.1-.1-.3-.2-.4-.3l-4.6,4.4c0,0-.1,0-.2-.1,0-.3,0-.7.2-.8,1.7-1.7,3.3-3.4,5.1-4.9.5-.4,1.6-.5,2.2-.2.4.2.5,1.4.3,2-.8,3.3-1.8,6.5-2.7,9.7-.1.4-.3.8-.3,1.2,0,.7,0,1.4,0,2.2.8,0,1.7,0,2.4,0,.6-.1,1.1-.5,1.5-.9,2.3-2.2,3.8-4.8,4.2-7.9.2-1.2-.3-2.5-.6-3.8,0-.4-.5-.8-.4-1.2,0-.5.3-1.4.6-1.4.5,0,1.3.2,1.6.6.4.5.5,1.3.5,2-.3,5.7-2.6,10.5-7.3,13.9ZM65.4,86.2c-.3.3-.7.6-1.1.8-3.7,2.3-7.2.5-7.4-3.7-.2-4.7,1.7-8.7,5.5-11.6.4-.3,1-.6,1.5-.8,3.2-1.4,5.8,0,6.3,3.4,0,.6.1,1.1.2,1.6-.3,4.1-2,7.6-4.9,10.4ZM79.8,81.6c-1.6,2.5-3.5,4.6-6,6.2-.5.3-1.3.3-2,.4,0-.6-.3-1.4-.2-1.9,2.3-7.6,4.5-15.2,7-22.7.6-1.8,1.8-3.4,3-4.8,1.4-1.6,3.3-1.4,4.9.1-2.8-.9-3.9-.5-4.9,2.2-1.4,4.1-2.6,8.2-3.8,12.3-1,3.4-2,6.8-3,10.2-.1.5-.2,1-.3,1.8,2.6-1.1,3.5-3.5,5.6-4.8,0,.3-.1.7-.3.9ZM95.7,76.4c-1,3.9-2.7,7.4-6,9.9-1.2.9-2.8,1.5-4.3,1.8-1.6.3-2.5-.8-2.2-2.4.5-2.4,1.3-4.7,1.9-7,.4-1.5.9-3.1,1.3-4.6.1-.4.1-.9.2-1.3-.2-.1-.3-.2-.5-.3-1.5,1.5-3,2.9-4.7,4.6,0-.5,0-.8,0-.9,1.5-2.2,3.2-4.1,5.5-5.3.5-.3,1.5-.4,1.9-.1.4.2.5,1.2.4,1.8-.8,3.3-1.8,6.6-2.7,9.9-.2.8-.4,1.5-.6,2.3-.2,1,.3,1.7,1.3,1.4,1.1-.3,2.4-.7,3.2-1.5,2.3-2.2,3.7-4.9,4-8,.1-1.4-.7-2.9-1-4.4,0-.5.1-1.4.5-1.6.7-.5,1.5,0,1.8.8.2.4.3.8.3,1.2,0,1.3,0,2.6-.3,3.9ZM109.7,74.4c-.6,1.6-1.7,2.8-3.2,3.4-1.5.7-3.2,1.1-4.8,1.6-.3.1-.9.2-.9.4-.2,1.6-.5,3.2-.4,4.8.1,1.2,1.7,1.7,3,1,1-.5,1.8-1.4,2.7-2.2.4-.4.7-.8,1.3-1.5-.3,3.6-4.7,6.8-7.6,5.9-1.4-.4-2-1.5-2.3-2.8-1-5.2,3.4-12.6,8.4-14.3,1.1-.4,2.4-.6,3.3.4.9,1,.8,2.2.4,3.3Z"/>
        <path class="cls-1" d="M100.7,78.7c.9-2.7,2.5-4.9,4.8-6.6.3-.2.6-.4.9-.4.5,0,1.1-.2,1.4,0,.3.2.3,1,.2,1.4-.7,2.9-4.1,5.4-7.3,5.6Z"/>
        <path class="cls-1" d="M68.4,73.4c-.8,4.9-2.3,9.1-5.2,12.6-.5.5-1.2.9-1.9,1.1-1.2.4-2.1-.2-2.3-1.5,0-.4-.1-.8,0-1.3.4-4.5,2.2-8.4,4.9-11.9.1-.1.3-.3.4-.4.9-.7,1.9-1.5,2.9-.8.7.5,1,1.6,1.3,2.2Z"/>
      </g>
    </g>
  </g>
</svg>