<?xml version="1.0" encoding="utf-8"?>
<svg xmlns="http://www.w3.org/2000/svg" version="1.1" viewBox="0 0 270 150">
  <defs>
    <style>
      .cls-1 {
        fill: #FFFFFF;
      }
    </style>
  </defs>
  
  <g>
    <g id="Layer_1">
      <path class="cls-1" d="M10,52.4v46h4.6v-21h18.1v-4.2H14.5v-16.6h18.8v-4.2H10ZM138.1,52.4v17.8c-1.4-2.2-3.2-3.8-5.6-5-2.4-1.1-4.9-1.7-7.6-1.7-5.1,0-9.4,1.7-13,5.1-3.5,3.4-5.3,7.6-5.3,12.6s0,2.4.3,3.4c.2,1.1.5,2.1.9,3.2.8,2,1.6,3.4,2.5,4.3,2.7,2.6,5.1,4.4,7.1,5.4,2.3,1.1,4.7,1.6,7.1,1.6,5.9,0,10.4-2.3,13.7-7v6.2h4.4v-46h-4.6ZM249.9,52.4v11.9h-7.1v4.2h7.1v29.9h4.6v-29.9h7.9v-4.2h-7.9v-11.9h-4.6ZM50.2,63.5c-5,0-9.2,1.7-12.6,5.2-3.4,3.4-5.1,7.7-5.1,12.6,0,5,1.7,9.3,5.2,12.7,3.4,3.4,7.7,5.1,12.7,5.1s7-1.1,10.1-3.4c3.1-2.3,5.3-5.1,6.4-8.5h-4.8c-1.1,2.3-2.8,4.1-5,5.5-2.2,1.3-4.6,2-7.2,2s-6.2-1.1-8.8-3.4c-2.7-2.4-4-5.1-4-8.3h30.8c0-2.6-.3-4.9-.8-6.8-.6-2.2-1.7-4.2-3.2-6-3.6-4.4-8.2-6.6-13.7-6.6h0ZM87.3,63.5c-5,0-9.2,1.7-12.6,5.2-3.4,3.4-5.1,7.7-5.1,12.6s1.7,9.3,5.2,12.7c3.4,3.4,7.7,5.1,12.7,5.1s7-1.1,10.2-3.4c3.1-2.3,5.3-5.1,6.4-8.5h-4.8c-1.1,2.3-2.8,4.1-5,5.5-2.2,1.3-4.6,2-7.2,2s-6.2-1.1-8.8-3.4c-2.7-2.4-4-5.1-4-8.3h30.8c0-2.6-.3-4.9-.8-6.8-.6-2.2-1.7-4.2-3.2-6-3.6-4.4-8.2-6.6-13.7-6.6h0ZM155.1,63.5c-2.8,0-5.1.9-7,2.7s-2.8,4.1-2.8,6.8,0,1.3.2,1.9c.1.6.3,1.1.5,1.7.5,1.1,1.1,2.1,2,2.9.9.8,1.8,1.4,2.9,1.9l1.2.5,2.2.7c2.1.7,3.5,1.4,4.3,2.1,1.4,1.2,2,2.7,2,4.4s-.6,3.1-1.8,4.1c-1.2,1-2.6,1.5-4.2,1.5s-3.2-.6-4.4-1.9c-1.2-1.3-1.8-2.8-1.8-4.6h-4.6c0,2.9,1,5.4,3,7.6,2,2.2,4.4,3.3,7.3,3.3s5.9-1,8-3.1c2-2.1,3-4.7,3-7.8s-1-5-2.9-6.7c-1.3-1.2-3.5-2.3-6.7-3.3-2.1-.7-3.5-1.3-4.1-1.8-1.2-1-1.9-2.3-1.9-3.9,0-1.3.5-2.4,1.4-3.3,1-.9,2.1-1.4,3.3-1.4s2.8.4,3.8,1.3c1,.9,1.5,2,1.5,3.5h4.6c0-2.5-1-4.6-2.9-6.5-1.9-1.8-4.1-2.7-6.6-2.7h0ZM186.5,63.5c-2.8,0-5.3.5-7.7,1.6-2.7,1.3-4.6,2.9-5.9,5v-5.8h-4.3v46h4.6v-18.3c1.1,2.3,2.9,4.1,5.4,5.4,2.3,1.2,4.8,1.8,7.5,1.8s4.8-.4,7-1.3,4.1-2.1,5.9-3.8c3.7-3.4,5.5-7.6,5.5-12.6s-.4-4.4-1.2-6.5c-.8-2.1-1.7-3.7-2.9-4.9-2.5-2.5-4.7-4.1-6.7-5-2.3-1-4.7-1.5-7.2-1.5h0ZM224.7,63.5c-5,0-9.2,1.8-12.7,5.3-3.5,3.5-5.2,7.7-5.2,12.7s1.8,9.1,5.3,12.5c3.5,3.4,7.7,5.1,12.6,5.1s9.1-1.8,12.5-5.3c3.4-3.6,5.1-7.8,5.1-12.7s-1.8-8.9-5.3-12.3c-3.5-3.5-7.6-5.2-12.4-5.2h0ZM50.3,68c3.2,0,6,1,8.4,3.1,2.5,2.1,4,4.6,4.6,7.7h-26.2c.6-3.2,2.1-5.8,4.6-7.8,2.5-2,5.4-3,8.6-3h0ZM87.3,68c3.2,0,6,1,8.4,3.1,2.5,2.1,4,4.6,4.6,7.7h-26.2c.6-3.2,2.1-5.8,4.6-7.8,2.5-2,5.4-3,8.6-3h0ZM124.6,68c3.8,0,7,1.3,9.6,3.8,2.7,2.5,4,5.7,4,9.4s-1.3,6.9-4,9.6c-2.6,2.7-5.8,4-9.5,4s-6.9-1.3-9.6-4c-2.6-2.7-3.9-5.9-3.9-9.6s1.3-6.8,4-9.3c2.6-2.6,5.8-3.9,9.4-3.9h0ZM186.5,68c3.7,0,6.9,1.3,9.5,3.9s3.9,5.8,3.9,9.5-1.3,7-4,9.5c-2.6,2.5-5.9,3.8-9.7,3.8s-.9,0-1.4,0-.9-.1-1.3-.2c-2.8-.6-5.1-1.9-7.1-3.9-2.4-2.4-3.6-5.6-3.6-9.5s1.3-6.9,4-9.3c2.7-2.5,5.9-3.7,9.7-3.7h0ZM224.7,68c3.5,0,6.5,1.3,9.1,3.8,2.6,2.5,4,5.6,4,9.4s-1.2,7-3.7,9.6-5.6,4-9.4,4-6.7-1.3-9.4-3.9c-2.6-2.6-3.9-5.7-3.9-9.3s.3-3.7.9-5.3c.6-1.6,1.6-3,2.9-4.3,2.6-2.6,5.7-4,9.5-4h0Z"/>
    </g>
  </g>
</svg>