<?xml version="1.0" encoding="utf-8"?>
<svg xmlns="http://www.w3.org/2000/svg" version="1.1" viewBox="0 0 270 150">
  <defs>
    <style>
      .cls-1 {
        fill: #FFFFFF;
      }
    </style>
  </defs>
  
  <g>
    <g id="Layer_1">
      <path class="cls-1" d="M254.2,73.1l-2.2.6c-2.1-7.2-5.6-10.3-10.6-10.3s-6,2.3-6,6,2.9,5.4,10.7,8.6c7.2,2.7,10.2,5.9,10.2,11.6,0,8.6-6.8,14.1-17.9,14.1s-11.4-1.2-14.9-2.6l-.4-12,2.1-.4c3.2,8.2,7.2,11.3,12.5,11.3s7-3.2,7-6.4-1.9-5.1-9-7.7c-6.8-2.2-11.4-5.1-11.4-12.3s6.2-13.1,16.9-13.1,9.6.9,12.6,2.2l.5,10.5ZM208.2,76.9c.3-5.6-.9-13.8-5.5-13.8s-7.4,7.6-7.5,14.1l13-.3ZM203.8,60.3c11.7,0,17.3,8.6,17.4,19.8h-26.3c0,10,5.2,17.5,15.1,17.5s6.8-1.2,9.4-3.1l1.2,1.4c-2.9,3.9-8.9,7.7-16.9,7.7-12.8,0-21.7-8.8-21.7-21.2,0-11.2,7.3-22,21.8-22M165.9,81.2c-.3-8.9-3.5-15.9-9.8-15.9s-2.6.3-4.4.9l.5,34.2c.6.3,2.1.4,3.2.4,6.1,0,10.5-8.6,10.5-19.5M178.9,80.5c0,14.1-8.9,23.1-23.9,23.1s-10.9-.9-15.7-2c.4-5.6.4-40.6,0-47.2-.4-3.4-1.4-5-4-5.4l-1.8-.2v-1.6l18.5-3.4c0,2.9-.3,10.6-.3,19.5,3.3-1.6,6.2-2.6,10.3-2.6,9.7,0,16.9,8.2,16.9,19.6M131.7,72.8c-5.7-3.8-11.9-2.1-13.1,0-.5,6.6-.4,16.7,0,21.9.3,3.4,1.2,4.9,3.9,5.1l3.5.3v2.2h-26.2v-2.2l2-.3c2.5-.3,3.4-1.7,3.6-5.1.6-5.6.8-17.2,0-23.6-.2-3.7-1.1-5-3.6-5.4l-2-.3v-1.5l18.7-3.6-.3,9.6c4.4-9.9,13.1-11.1,17.9-8.5l-4.5,11.4ZM70.2,82c0,10.5,2.8,19,8.5,19s7.9-8.4,7.9-19-2.7-18.9-8.5-18.9-7.9,8.1-7.9,18.9M99.9,81.8c0,12-7.9,21.8-22.1,21.8s-20.9-9.3-20.9-21.4,7.9-21.8,22.1-21.8,20.9,9.3,20.9,21.5M63.5,61.2l-2.9.9c-2.5-8.4-6.8-13.2-14.3-13.2h-9.8c-.5,5.6-.8,14.2-.5,23.6l6.5-.3c4.4,0,6.2-3.2,7.3-7.8h2.5v19.4h-2.5c-1.1-4.7-2.9-7.9-7.3-8.2h-6.5c0,6.8,0,12.8.5,16.4.4,5.1,1.9,7.5,5.6,8l3.5.3v2.2H13.9v-2.2l2.7-.3c3.7-.5,5.2-2.8,5.6-8,.7-8.4.9-26.3,0-36.2-.4-5.3-1.9-7.4-5.6-7.9l-2.7-.4v-2.3h49.5v16.1Z"/>
    </g>
  </g>
</svg>