<?xml version="1.0" encoding="utf-8"?>
<svg xmlns="http://www.w3.org/2000/svg" version="1.1" viewBox="0 0 270 150">
  <defs>
  </defs>
  
  <g>
    <g id="Layer_1">
      <g fill="#FFFFFF">
        <path d="M238.3,85.4h-4.6v-20.1h4.2c0,.5.1,1,.2,1.1,2-.5,4-1.3,6.1-1.5,2.2-.2,4,.8,5,2.3,1.9-.8,3.7-2,5.5-2.3,4.4-.7,7.4,1.7,7.6,6.1.2,4.7,0,9.4,0,14.3h-4.7c0-.7,0-1.4,0-2.2,0-3.5,0-7,0-10.5,0-2.8-1-4-3.4-4-2.4,0-4,1.6-4,4.2,0,3.6,0,7.1,0,10.7v1.8h-4.6c0-2.1,0-4.2,0-6.2,0-2.4,0-4.8,0-7.3,0-2.2-1.5-3.3-3.7-3.3-2.4,0-3.6,1.3-3.6,3.6,0,4.3,0,8.6,0,13.1Z"/>
        <path d="M178.9,84c-1.5.5-2.9,1.3-4.4,1.4-3.7.4-6.7-1.6-8-5.2-1.2-3.2-1.3-6.6-.3-9.8,1.8-5.9,7.7-7.7,12.8-3.9.1-.5.3-1,.4-1.6h4c0,.7,0,1.3,0,1.9,0,5.8,0,11.5,0,17.3,0,4.5-1.7,7.2-5.5,8.5-4.1,1.4-8.7.3-11.3-2.9.7-.9,1.4-1.8,2.1-2.7,2.3,2.2,4.9,3.3,7.9,1.8,2-1,2.2-2.9,2.1-4.7ZM178.9,75c0-.9,0-1.8,0-2.8.2-1.9-.7-3.1-2.4-3.7-1.9-.7-3.9-.1-5,1.4-1.8,2.4-1.8,7.8,0,10.2,1.1,1.4,2.9,1.9,4.8,1.3,1.7-.6,2.5-1.7,2.5-3.6,0-.9,0-1.8,0-2.8Z"/>
        <path d="M94.1,56.9h4.5v10.3c2.3-2,4.6-2.7,7.3-2.2,2.7.5,4.6,2.2,4.7,5,.3,5.1,0,10.2,0,15.4h-4.5c0-3.4,0-6.6,0-9.9,0-1.3,0-2.7-.1-4-.2-2-1.5-3-3.6-2.9-2.2.1-3.8,1.5-3.8,3.4,0,4.4,0,8.7,0,13.3h-4.6v-28.5Z"/>
        <path d="M47.8,72.7c.4-2.5-.2-3.8-1.7-4.4-1.9-.7-3.8,0-5,1.9-.2.3-.6.6-.9.6-1.2,0-2.4,0-3.8,0,0-2.2,1-3.7,2.6-4.7,3.1-2,6.4-2.2,9.8-.8,2.7,1.1,3.8,3.4,3.8,6.2,0,2.7,0,5.4,0,8.1,0,1.8.3,3.5.4,5.3-2.8.7-4.4.4-4.9-.9-2,.5-3.9,1.3-5.9,1.4-3.4.2-6-2.2-6.4-5.3-.4-3,1.3-5.7,4.5-6.7,1.4-.4,2.9-.5,4.4-.7,1,0,1.9,0,2.9,0ZM47.7,75.7c-1.6.1-3.3.1-4.9.5-1.7.4-2.5,1.8-2.2,3.4.3,1.5,1.7,2.5,3.4,2.2,3.2-.6,4.4-1.6,3.6-6.1Z"/>
        <path d="M5,58.3h17.2v3.9h-12.4v7.8h10.8v4h-10.9v11.4h-4.8v-27Z"/>
        <path d="M55,65.3h4.3c0,.6.2,1.1.2,1.3,1.9-.6,3.9-1.5,5.9-1.7,3.5-.3,5.8,1.6,6.2,5.1.4,3.1.2,6.3.3,9.5,0,1.9,0,3.9,0,5.9h-4.7c0-.9,0-1.8,0-2.7,0-3.5,0-7,0-10.5,0-2.4-1.3-3.6-3.6-3.5-2.3,0-3.9,1.6-3.9,3.7,0,4.3,0,8.6,0,13h-4.7v-20.1Z"/>
        <path d="M151,85.4h-4.5v-20.1h4.2c.1.5.2,1.1.4,1.9,2-2,4.3-2.7,6.9-2.3,3,.4,4.9,2.1,5.1,5.4.3,5,0,10,0,15.1h-4.6c0-1.1,0-2.1,0-3.1,0-3.5,0-6.9,0-10.4,0-2.3-1.3-3.4-3.5-3.3-2.3,0-3.8,1.6-3.9,3.6,0,3.8,0,7.6,0,11.4,0,.6,0,1.1,0,1.8Z"/>
        <path d="M222.3,85.5c-4.9,0-8.6-3.3-9.2-8.3-.2-1.6-.2-3.2,0-4.8.9-5.2,4.6-8.1,9.9-7.9,4.7.2,8.1,3.6,8.7,8.7.4,3.8-.1,7.4-3.1,10.1-1.8,1.6-4,2.3-6.4,2.2ZM227.5,74.6c-.4-1.3-.6-2.9-1.4-4.2-1.7-3-5.9-2.9-7.5.1-1.4,2.9-1.4,5.9,0,8.8.8,1.7,2.3,2.5,4.2,2.4,1.9-.1,3.2-1.1,3.7-2.9.4-1.3.6-2.7.9-4.3Z"/>
        <path d="M120.3,78.7h4.2c1.2,2.9,3.3,4,6,3,.8-.3,1.7-1.2,1.8-2,0-.7-.7-1.7-1.4-2.2-1-.6-2.2-.7-3.3-1-1.1-.3-2.2-.6-3.3-1.1-1.9-.9-3.3-2.3-3.4-4.6,0-2.3,1.1-3.9,3-5.1,3.4-2.1,8.9-1.6,11.4,1.2.9,1,1.3,2.4,2.1,4h-4.9c-1.2-2.9-3-3.4-5.3-2.6-.7.3-1.6,1.3-1.7,2.1,0,.6.8,1.6,1.5,1.9,1.6.7,3.4.8,5,1.5,1.5.7,3.2,1.6,4.2,2.8,1.7,2,.9,5.2-1.2,6.9-3.3,2.7-9.6,2.6-12.7-.3-1.4-1.2-2-2.6-2-4.6Z"/>
        <path d="M211.5,72.1h-4.5c0-.1-.2-.2-.2-.3-.8-2.6-2.1-3.7-4.2-3.6-2.2,0-3.7,1.4-4.1,4-.3,1.7-.3,3.5,0,5.2.3,2.7,1.6,4.1,3.7,4.4,2.2.3,3.6-.7,4.8-3.3h4.1c0,3.7-3.4,6.9-7.4,7.1-5.7.3-9.5-3-10-8.9-.1-1.7,0-3.5.3-5.1.8-3.8,3.2-6.2,7.1-6.9,3.6-.7,7.1.6,8.8,3.4.7,1.1,1,2.5,1.6,4.1Z"/>
        <path d="M91.7,72.2c-1.2,0-2.3.1-3.3,0-.5,0-1.1-.5-1.2-1-.8-2-2.1-3-4-2.9-1.9,0-3.5,1.2-3.8,3.1-.3,2-.4,4.1-.2,6.2.3,2.7,1.7,4,3.8,4.2,2.2.2,3.5-.8,4.6-3.3h4.1c0,3.7-3.4,6.9-7.4,7.1-5.9.3-9.6-3.1-10-9.4,0-1.5,0-3,.3-4.5,1.3-6.4,8.9-9.4,14.1-5.6,2,1.4,3,3.4,3.1,6.2Z"/>
        <path d="M24,65.3h4.3c0,.5.2,1,.2,1.1,1.6-.5,3.2-1.1,4.8-1.5,1-.2,1.6.3,1.5,1.5,0,1,0,1.9,0,2.9-1.3.1-2.5,0-3.6.4-1.6.4-2.6,1.4-2.5,3.2,0,4.1,0,8.3,0,12.6h-4.6v-20.1Z"/>
        <path d="M144.1,85.4h-4.6v-20.1h4.6v20.1Z"/>
        <path d="M113.4,65.3h4.3v20.1h-4.3v-20.1Z"/>
        <path d="M141.7,62.4c-1.6,0-2.6-1-2.6-2.4,0-1.5,1.1-2.5,2.7-2.5,1.5,0,2.6,1.1,2.6,2.5,0,1.4-1.1,2.4-2.8,2.4Z"/>
        <path d="M115.7,62.4c-1.7,0-2.7-.9-2.7-2.4,0-1.4,1-2.4,2.6-2.4,1.6,0,2.7.9,2.7,2.5,0,1.5-.9,2.4-2.6,2.4Z"/>
        <path class="cls-1" d="M191,82.9c0,1.4-1,2.3-2.5,2.2-1.4,0-2.2-.9-2.2-2.3,0-1.5.9-2.4,2.4-2.3,1.5,0,2.4.9,2.3,2.4Z"/>
      </g>
    </g>
  </g>
</svg>