<?xml version="1.0" encoding="utf-8"?>
<svg xmlns="http://www.w3.org/2000/svg" version="1.1" viewBox="0 0 270 150">
  <defs>
    <style>
      .cls-1 {
        fill: #FFFFFF;
      }

      .cls-2 {
        fill: #E4E4E7;
      }
    </style>
  </defs>
  
  <g>
    <g id="Layer_1">
      <path class="cls-1" d="M39.3,89.5h9.4l5.1-28.9h-9.4l-1.9,10.4h-8.2l1.9-10.4h-9.4l-5.1,28.9h9.4l1.9-10.8h8.2l-1.9,10.8ZM59.1,60.5l-2.9,16.1c-.3,1.3-.4,2.5-.4,3.6,0,8.5,7.5,9.8,11.9,9.8,9.4,0,13.4-3.1,14.9-11.5l3.2-18h-9.4l-2.7,15.1c-.9,4.7-1.5,7.2-5,7.2s-3.4-1.2-3.4-3.7.1-2.2.4-3.6l2.7-15h-9.4ZM135.7,89.5h9.4l1.3-7.5h4.4c8.2,0,12.8-4.4,12.8-12.5s-3.9-9-10.9-9h-12l-5.1,29ZM150.4,74.9h-2.7l1.3-6.8h2.5c2.1,0,3.2,1,3.2,2.9s-1.6,3.9-4.3,3.9ZM182,59.9c-10.3,0-16.4,6.6-16.4,17.8s4.9,12.4,13.1,12.4,16.4-6.6,16.4-17.8c0-7.8-4.8-12.4-13.1-12.4h0ZM179.3,82.6c-2.4,0-3.9-1.8-3.9-4.7s.1-2.1.3-3.2c.7-3.8,1.9-7.3,5.8-7.3s3.9,1.8,3.9,4.7-.1,2.1-.3,3.2c-.7,3.8-1.9,7.3-5.8,7.3ZM227.9,89.5h9.4l3.7-21.2h7.1l1.4-7.7h-24.1l-1.4,7.7h7.5l-3.7,21.2ZM212.2,71.2c-3-.9-4.2-1.3-4.2-2.7s.6-2,2.4-2,2.4.8,2.9,1.9l8.3-2.3c-1-4.1-4.5-6.2-10.5-6.2-11.4,0-12.3,7.6-12.3,10,0,4.7,2.5,7.6,8,9.1,1.4.4,3.1.8,3.1,2.4s-.9,2-2.5,2-3-.9-3.6-2.4l-8.2,2.2c.9,4.3,4.9,6.7,11.3,6.7s12.9-1.3,12.9-10c0-4.4-2.4-7.2-7.5-8.8h0Z"/>
      <path class="cls-2" d="M16.4,89.5l5.1-28.9H5.9v28.9h10.5ZM253.5,60.6l-5.1,28.9h15.6v-28.9h-10.5Z"/>
      <path class="cls-1" d="M97.2,81h7.9l1.3-7.3h-7.9l.9-5.4h11.1l1.4-7.8h-20.5l-5.1,29h9.4l1.5-8.5ZM121.9,81h8l1.3-7.3h-7.9l.9-5.4h11.1l1.4-7.8h-20.5l-5.1,29h9.4l1.5-8.5Z"/>
    </g>
  </g>
</svg>