<?xml version="1.0" encoding="utf-8"?>
<svg xmlns="http://www.w3.org/2000/svg" version="1.1" viewBox="0 0 270 150">
  <defs>
    <style>
      .cls-1 {
        fill: #FFFFFF;
      }
    </style>
  </defs>
  
  <g>
    <g id="Layer_1">
      <g>
        <path class="cls-1" d="M140.6,26.3c.3.5.6,1.6,1.1,1.6l3.6-4.3h.4c0,8.7.2,16.7.2,25.5,0,.2-.4,0-.6.2-1.3-8.3-1.6-16.9-6-23.9-.7-1-1.7-1.6-2.8-1.8-1-.2-1.9.5-2.4,1.4l-.6,1.8v58.3c.2.9.7,1.8,1.7,2.2.8.2,1.8.2,2.5-.4,1-.8.8-1.9.8-3v-25.5c-.6-.7-2.3.2-2.3-.8,4.4,0,8.8-.3,13.2,0-.2.8-1.5.2-1.9.9v28.2c-.2.2.2,1.1-.5.8l-3.6-5.6h-.2c-1,2.4-2.9,5.6-5.9,5.9-3.6.7-7-.7-9.1-3.7-3.9-6.9-3.9-15.4-4.4-23.7-.2-9.9-.2-20,2.8-28.8,1.2-3.5,3.9-7.8,8.2-8.4,2.7-.5,4.5,1.4,5.7,3.3"/>
        <path class="cls-1" d="M191.5,23.8c-1.1.3-2.4-.2-3.4.4v62.2c1,.6,2.4,0,3.4,0,3.1-2,4-5.6,5.1-8.7,1.7-5.4,2.8-11.1,3.3-17,.2-.2.4,0,.6,0,.4,8.7.2,18.2.2,26.6-7.8.2-17.4,0-24.5,0v-.4c.9-.2,1.9.3,2.5-.5,0-20.6,0-41.2,0-62.2-.8-.4-2,0-2.8-.3-.2-.5.6-.4,1-.5,4.8-.2,9.7,0,14.5,0v.5Z"/>
        <path class="cls-1" d="M85.7,23.4c.3.2.2.5.2.7-1.2,0-2.9-.3-3.8.4v61.9c.9.6,1.9,0,3,.2,1.8-.7,2.5-2.6,3.4-4,3.1-6.7,4.4-14.1,5.4-21.6h.6c0,8.7.2,17.8-.2,26.3h-24.4c0-1.2,2.2-.5,2.9-1.1V24.1l-2.4-.2v-.6h15.3Z"/>
        <path class="cls-1" d="M121.2,48h-.7c-1.2-7.5-2.3-15.1-5.7-21.7-1.3-1.9-3.9-2.4-5.9-2l-.4.4v29.4c0,.2,0,.4.2.5,1.9-.3,3-2.2,3.7-3.7,1.3-3.7,2.1-7.6,2.5-11.7.2-.2.3,0,.6,0,0,10.4,0,21.2,0,31.7-.2.2-.5.2-.6.2-.4-1.7-.5-3.5-.7-5.3-1-3.7-1-8.4-5.1-10.3h-.5v30.5c0,.3,0,.6.3.6,4.1.5,5.8-4,7.2-6.5,2.2-5.9,3.4-12.1,4.3-18.4.2-.2.5-.2.8,0v25.4l-.3.2h-24.4v-.6c.8-.3,2.3.2,2.9-.5V24.3c-.8-.5-1.7,0-2.4-.5v-.2c7.8-.2,16.3-.2,24.3,0v24.3Z"/>
        <path class="cls-1" d="M173.3,86.5c-1.1-5.9-6.4-61.9-6.4-61.9l-.2-1.1c-1.6-.2-3.4-.2-5,0l-1,5.9-7.7,52.5c-.3,1.6-.6,3.5-2.5,4.3-.4.5-2,0-1.3,1h8.1c.4-.9-.7-.8-1.1-.9-1.7-.7-2.1-2.3-2.3-3.8.5-3,.6-6.1,1.3-9h6.9c0,0,.4.2.4.2.4,4.3.9,8.1,1,12.5-.7.5-1.6.3-2.5.5,0,.2,0,.4,0,.5h13.7v-.6h-1.6ZM162,72.8c-2.2,0-4.5.2-6.6-.2l4.6-31.1,2.5,31-.4.3Z"/>
        <path class="cls-1" d="M107.9,91.4c-1.1,5.2-6,11-11.9,11.9-5.9.9-12.4.4-18.4-.2l-.2.6-.9,7.7.2.2c7.6-4.8,19.9-5,27.5-.2,4.2,3,6.3,7.3,5.5,12.3-.6,4.8-5.3,9.2-10,10.4-8.8,2.5-19.6,1.7-26.5-3.9-2.2-1.7-2.9-4.4-2.3-7.1.6-2.3,2.8-4.5,5.1-5.1,2.2-.6,4.7-.2,6.5,1,2.1,1.6,3.2,3.7,3.2,6.1,0,2.6-1.8,5-4.3,6.2-.9.4-1.9.5-2.8.8,4,2.1,8.9,2.4,13.7,2.1v-25.3c-5.9-.7-11.3,1.1-16,4l-.9-.5c.6-7.2,1.6-14.5,2.4-21.6h.2c9.4,1.4,20.6,2.7,30,.5"/>
        <path class="cls-1" d="M197.1,98.9c-3.5-4.4-8.2-7.2-13.7-7.7-7.8-.8-14.6,2.4-19.2,8.6-4.9,6.1-5.3,15.9-2.2,22.9,2.9,6.8,10.1,12.4,17.7,12.8,8.5.3,15.9-5.2,19.3-12.2,3.7-7.4,3.2-17.8-2-24.3M183.9,133.9c-2.1.6-4.4.6-6.4,0v-41.2c1.9-.5,4.4-.8,6.4,0v41.3Z"/>
        <path class="cls-1" d="M152.6,102.2c-1.5-3.2-4.4-6.5-7.7-8.3-5.9-3.5-15-3.7-20.7.2-7.4,4.8-11.1,12.3-10.5,20.9.6,8.4,6.4,16.7,14.9,19.6,8,2.4,15.8-.8,21.1-6.8,5.6-6.7,7.2-17.8,2.9-25.6M137.5,133.8c-2,.5-4.3.5-6.3,0v-41.1c1.9-.5,4.5-.5,6.3,0v41.1Z"/>
        <path class="cls-1" d="M126.1,16.8c0,.4-.3,1.3-.3,1.7,0,.8.7.6,1.5.6v.6c-1,0-1.8,0-2.7,0-.9,0-1.7,0-2.6,0v-.6c1.4,0,1.5-.2,1.8-1.6l1.6-8.1h-.2c-1.7,0-2.6.2-3.1,2.2h-.6l.6-3c1.5,0,3,0,4.5,0,1.4,0,2.7,0,4.1,0,0,.5,0,.9,0,1.4,0,.6,0,1.2.1,1.7h-.6c-.3-1.8-.8-2.3-2.4-2.3h-.2l-1.4,7.4Z"/>
        <path class="cls-1" d="M133.3,11.2c0-.4.5-2,.5-2.5s-.8-.6-1.2-.6v-.5c.1,0,3.4-.2,3.4-.2l-1.7,7.3h0c.5-1,1.9-2.4,3.2-2.4s1.5.7,1.5,1.2,0,1.1-.3,1.6l-.5,1.8c0,.2-.3,1-.3,1.2s.1.5.3.5c.6,0,1.1-1.2,1.3-1.7h.3c-.4,1.3-1.4,2.8-2.6,2.8s-1.2-.6-1.2-1.3.2-1.2.4-1.8l.5-1.8c0-.3.3-1,.3-1.4s-.2-.6-.5-.6c-.6,0-1.5.9-1.7,1.4-.5.8-1,1.7-1.3,2.6l-.7,2.4h-1.7l2-8.2Z"/>
        <path class="cls-1" d="M147.4,17.2c-1,1.7-2,2.5-4,2.5s-2.3-1-2.3-2.7c0-2.7,2.1-4.7,4.6-4.7s2,0,2,1.2c0,1.8-3.1,3.1-4.6,3.5,0,.3-.2.9-.2,1.3,0,.7.7.9,1.1.9,1.6,0,2.6-1.5,3.1-2.2l.3.3ZM146.3,13.3c0-.5-.3-.7-1-.6-1.2.2-1.9,2.5-2.2,3.5,1.1-.4,3.1-1.5,3.1-2.9"/>
        <rect class="cls-1" height=".9" width="47" x="70.1" y="15.4"/>
        <rect class="cls-1" height=".9" width="49.1" x="151.6" y="15.4"/>
        <rect class="cls-1" height=".9" width="130.4" x="70.2" y="143.1"/>
      </g>
    </g>
  </g>
</svg>